<?xml version="1.0" encoding="utf-8"?>
<!-- Generator: Adobe Illustrator 21.0.0, SVG Export Plug-In . SVG Version: 6.00 Build 0)  -->
<svg version="1.1" id="Layer_1" xmlns="http://www.w3.org/2000/svg" xmlns:xlink="http://www.w3.org/1999/xlink" x="0px" y="0px"
	 viewBox="0 0 750.1 214.8" style="enable-background:new 0 0 750.1 214.8;" xml:space="preserve">
<style type="text/css">
	.st0{fill:#61A2D8;}
	.st1{fill:#587ABC;}
	.st2{fill:#4B5EAA;}
	.st3{fill:#BCBEC0;}
</style>
<g>
	<g>
		<path class="st0" d="M112.5,50c-4.2-2.9-9.8-2.4-11.8-4.2c-1.5-1.4-0.8-4.7-1.3-8c-0.4-5-4.6-8.9-9.8-8.9c-5.4,0-9.8,4.4-9.8,9.8
			c0,2.1,0.7,4.1,1.9,5.7c2.8,4.4,8.8,3.8,11.2,7.6c1.3,2,0.4,4.7,0.2,8c-0.1,0.5-0.1,1-0.1,1.5c0,7.2,5.9,13.1,13.1,13.1
			s13.1-5.9,13.1-13.1C119.3,56.6,116.5,52.3,112.5,50z"/>
		<circle class="st0" cx="74.3" cy="20.6" r="8.4"/>
		<circle class="st0" cx="60.6" cy="5.4" r="5.4"/>
		<circle class="st0" cx="60.6" cy="38.6" r="7.1"/>
		<circle class="st0" cx="70.1" cy="60.9" r="8.9"/>
		<circle class="st0" cx="83.1" cy="82.6" r="11.6"/>
	</g>
	<g>
		<path class="st1" d="M49.7,100.1c-2.8,4.2-2.3,9.8-4.1,11.8c-1.4,1.5-4.7,0.8-8,1.3c-5,0.5-8.9,4.7-8.9,9.8c0,5.4,4.5,9.8,9.9,9.7
			c2.1,0,4.1-0.7,5.7-1.9c4.4-2.8,3.8-8.8,7.5-11.3c2-1.3,4.7-0.4,8-0.2c0.5,0.1,1,0.1,1.5,0.1c7.2-0.1,13.1-6,13-13.2
			c-0.1-7.2-6-13.1-13.2-13C56.1,93.2,51.9,96,49.7,100.1z"/>
		
			<ellipse transform="matrix(1 -7.265947e-03 7.265947e-03 1 -1.0052 0.1528)" class="st1" cx="20.5" cy="138.4" rx="8.4" ry="8.4"/>
		
			<ellipse transform="matrix(1 -7.265947e-03 7.265947e-03 1 -1.1063 4.307420e-02)" class="st1" cx="5.4" cy="152.3" rx="5.4" ry="5.4"/>
		<ellipse transform="matrix(1 -7.265947e-03 7.265947e-03 1 -1.1037 0.2847)" class="st1" cx="38.6" cy="152" rx="7.1" ry="7.1"/>
		
			<ellipse transform="matrix(1 -7.265947e-03 7.265947e-03 1 -1.0329 0.4456)" class="st1" cx="60.8" cy="142.4" rx="8.9" ry="8.9"/>
		
			<ellipse transform="matrix(1 -7.265947e-03 7.265947e-03 1 -0.9367 0.6026)" class="st1" cx="82.5" cy="129.2" rx="11.6" ry="11.6"/>
	</g>
	<g>
		<path class="st2" d="M99.1,161.1c4.2,2.9,9.8,2.5,11.7,4.4c1.4,1.4,0.7,4.7,1.1,8.1c0.3,5,4.5,9,9.6,9.1c5.4,0.1,9.9-4.2,10-9.6
			c0-2.1-0.6-4.1-1.8-5.8c-2.7-4.4-8.7-4-11.1-7.8c-1.3-2-0.3-4.7,0-8c0.1-0.5,0.1-1,0.1-1.5c0.1-7.2-5.6-13.2-12.9-13.3
			s-13.2,5.6-13.3,12.9C92.5,154.4,95.1,158.8,99.1,161.1z"/>
		
			<ellipse transform="matrix(1.743843e-02 -0.9998 0.9998 1.743843e-02 -56.7698 324.5486)" class="st2" cx="136.7" cy="191.2" rx="8.4" ry="8.4"/>
		
			<ellipse transform="matrix(1.743843e-02 -0.9998 0.9998 1.743843e-02 -59.008 353.2458)" class="st2" cx="150.2" cy="206.6" rx="5.4" ry="5.4"/>
		
			<ellipse transform="matrix(1.743843e-02 -0.9998 0.9998 1.743843e-02 -25.1984 321.1604)" class="st2" cx="150.8" cy="173.4" rx="7.1" ry="7.1"/>
		
			<ellipse transform="matrix(1.743843e-02 -0.9998 0.9998 1.743843e-02 -11.7412 290.0298)" class="st2" cx="141.7" cy="151" rx="8.9" ry="8.9"/>
		
			<ellipse transform="matrix(1.743843e-02 -0.9998 0.9998 1.743843e-02 -2.1699 255.8227)" class="st2" cx="129.1" cy="129" rx="11.6" ry="11.6"/>
	</g>
	<path class="st3" d="M161.5,112.3c2.9-4.2,2.5-9.8,4.3-11.7c1.4-1.4,4.7-0.8,8.1-1.2c5-0.4,9-4.5,9-9.7c0.1-5.4-4.3-9.9-9.7-9.9
		c-2.1,0-4.1,0.7-5.8,1.8c-4.4,2.8-3.9,8.8-7.7,11.1c-2,1.3-4.7,0.3-8,0.1c-0.5-0.1-1-0.1-1.5-0.1c-7.2-0.1-13.2,5.7-13.2,13
		c-0.1,7.2,5.7,13.2,13,13.2C154.9,119,159.2,116.3,161.5,112.3z"/>
	
		<ellipse transform="matrix(1.050121e-02 -0.9999 0.9999 1.050121e-02 114.8463 264.9793)" class="st3" cx="191.3" cy="74.5" rx="8.4" ry="8.4"/>
	<path class="st3" d="M206.8,55.5c3,0,5.3,2.5,5.3,5.4s-2.5,5.3-5.4,5.3c-3,0-5.3-2.5-5.3-5.4C201.4,57.8,203.8,55.5,206.8,55.5z"/>
	
		<ellipse transform="matrix(1.050121e-02 -0.9999 0.9999 1.050121e-02 111.1167 233.3337)" class="st3" cx="173.5" cy="60.5" rx="7.1" ry="7.1"/>
	
		<ellipse transform="matrix(1.050121e-02 -0.9999 0.9999 1.050121e-02 79.7375 220.155)" class="st3" cx="151.1" cy="69.8" rx="8.9" ry="8.9"/>
	
		<ellipse transform="matrix(1.050121e-02 -0.9999 0.9999 1.050121e-02 45.3118 210.9076)" class="st3" cx="129.2" cy="82.6" rx="11.6" ry="11.6"/>
	<path d="M310.5,92.8c-1.2-0.8-2.8-1.2-4.7-1.2c-3.4,0-4.8,1.7-5.4,3.1l-18.5,44.6l-18.7-42.9c-0.8-1.8-1.5-3-2.4-3.7
		c-0.9-0.7-2.3-1.1-4.2-1.1c-1.8,0-3.2,0.4-4.2,1c-1,0.7-1.9,1.9-2.7,3.7L231,139.3l-18.1-44.6c-0.4-1-1.1-1.8-2-2.3
		c-0.9-0.5-2-0.8-3.4-0.8c-1.9,0-3.4,0.4-4.7,1.2c-1.3,0.9-2,2.1-2,3.6c0,0.7,0.2,1.5,0.6,2.3l22.4,52.2c0.7,1.5,1.7,2.7,2.9,3.4
		c1.3,0.7,2.7,1,4.4,1c3.5,0,5.8-1.4,7-4.1l18.3-41.7l18.2,41.7c0.7,1.5,1.7,2.5,2.9,3.2c1.2,0.6,2.6,0.9,4.2,0.9
		c3.6,0,6.1-1.5,7.4-4.4L312,98.8c0.4-0.8,0.6-1.6,0.6-2.3C312.6,95,311.9,93.7,310.5,92.8z"/>
	<path class="st0" d="M331.1,92.5c-1.1-0.6-2.6-0.9-4.6-0.9c-2,0-3.5,0.3-4.5,0.9c-1.3,0.7-1.9,2-1.9,4v54.1c0,2,0.6,3.3,1.9,4
		c1.1,0.6,2.6,0.9,4.5,0.9c2,0,3.5-0.3,4.6-0.9c1.3-0.7,1.9-2,1.9-4V96.5C333,94.5,332.4,93.2,331.1,92.5z"/>
	<path d="M416.8,93c-1-0.6-2.5-0.9-4.4-0.9c-1.9,0-3.3,0.3-4.3,0.9c-1.2,0.7-1.8,2-1.8,4v41.4l-47.2-42.9c-1.3-1.2-2.5-2-3.5-2.6
		c-1.1-0.5-2.6-0.8-4.5-0.8c-1.8,0-3.2,0.3-4.2,0.9c-1.1,0.7-1.7,2-1.7,3.9v54.1c0,2,0.6,3.3,1.8,4c1,0.6,2.4,0.9,4.3,0.9
		c1.9,0,3.3-0.3,4.4-0.9c1.2-0.7,1.8-2,1.8-4v-41.4l47.9,43.1c0.7,0.6,1.3,1.1,1.8,1.5c0.5,0.4,1,0.7,1.5,1c0.5,0.3,1.1,0.4,1.6,0.5
		c0.5,0.1,1.2,0.1,1.9,0.1c2,0,3.5-0.3,4.5-0.9c1.2-0.7,1.8-2,1.8-4V97C418.6,95,418,93.7,416.8,93z"/>
	<path d="M492.1,93.6c-0.6-1-1.7-1.6-3.4-1.6h-62.3c-1.7,0-2.8,0.5-3.4,1.6c-0.5,0.9-0.7,2.2-0.7,3.8c0,1.7,0.2,2.9,0.7,3.8
		c0.6,1,1.7,1.6,3.4,1.6H451v47.7c0,2,0.6,3.3,1.9,4c1.1,0.6,2.6,0.9,4.5,0.9c2,0,3.5-0.3,4.6-0.9c1.3-0.7,1.9-2,1.9-4v-47.7h24.7
		c1.7,0,2.8-0.5,3.4-1.6c0.5-0.9,0.7-2.2,0.7-3.8C492.8,95.7,492.6,94.5,492.1,93.6z"/>
	<path d="M561.4,147.2h-38.5c-4.8,0-8.3-0.6-10.4-1.8c-2-1.1-3-2.4-3-3.9v-13.1h52.1c1.7,0,2.8-0.5,3.4-1.6c0.5-0.9,0.7-2.2,0.7-3.8
		s-0.2-2.9-0.7-3.8c-0.6-1-1.7-1.6-3.4-1.6h-52.1v-6c0-1.5,1-2.8,3-4c2.1-1.2,5.6-1.8,10.4-1.8H561c1.6,0,2.7-0.5,3.3-1.6
		c0.5-0.9,0.7-2.2,0.7-3.8c0-1.7-0.2-2.9-0.7-3.8c-0.6-1-1.7-1.6-3.3-1.6h-38.4c-17.2,0-25.9,5.6-25.9,16.6v29.9
		c0,11,8.7,16.6,25.9,16.6h38.8c1.7,0,2.8-0.6,3.4-1.6c0.5-0.9,0.7-2.2,0.7-3.8c0-1.7-0.2-2.9-0.7-3.8
		C564.2,147.8,563.1,147.2,561.4,147.2z"/>
	<path d="M623.4,93.1h-26.3c-16.7,0-25.1,5.2-25.1,15.7v29.6c0,10.5,8.4,15.7,25.1,15.7h25l1.7,0.9l10,7.4c2.8,2,6.7,1.4,8.7-1.3v0
		c2-2.8,1.4-6.7-1.3-8.7l-1.6-1.1c2.6-1.2,4.7-2.7,6.2-4.6c1.8-2.2,2.7-5,2.7-8.3v-29.6C648.5,98.3,640.1,93.1,623.4,93.1z
		 M620.5,137.2c-2.8-2-6.7-1.4-8.7,1.3c-1.5,2-1.6,4.7-0.4,6.8h-10.9c-5,0-8.6-0.6-10.8-1.9c-2.3-1.3-3.4-2.8-3.4-4.7v-29.9
		c0-1.9,1.1-3.4,3.4-4.7c2.3-1.3,5.9-1.9,10.8-1.9h21.7c5,0,8.6,0.6,10.8,1.9c2.3,1.3,3.4,2.8,3.4,4.7v29.9c0,0.9-0.2,1.8-0.7,2.6
		c-0.5,0.8-1.2,1.5-2.3,2.1c-0.8,0.4-1.8,0.8-2.9,1.1L620.5,137.2z"/>
	<g>
		<path class="st2" d="M440.4,181c0,1-0.1,1.9-0.4,2.8c-0.3,0.9-0.6,1.7-1.1,2.4c-0.5,0.7-1.1,1.4-1.8,1.9c-0.7,0.6-1.5,1-2.4,1.4
			c0.7,0.1,1.3,0.4,1.9,0.7c0.6,0.3,1.1,0.8,1.5,1.3c0.4,0.5,0.7,1.1,1,1.8s0.3,1.5,0.3,2.3c0,0.8-0.1,1.7-0.3,2.6
			c-0.2,0.9-0.6,1.7-1,2.5c-0.5,0.8-1,1.5-1.7,2.2c-0.7,0.7-1.5,1.2-2.4,1.7s-1.9,0.9-3.1,1.2c-1.1,0.3-2.4,0.4-3.9,0.4h-8.3
			c-0.5,0-0.9-0.1-1.2-0.4s-0.3-0.7-0.2-1.3l5.5-27.8c0.1-0.6,0.4-1.1,0.8-1.3c0.4-0.2,0.8-0.4,1.3-0.4h6.7c1.6,0,2.9,0.1,4,0.4
			s2,0.7,2.7,1.2c0.7,0.5,1.2,1.1,1.6,1.9S440.4,180,440.4,181z M435.1,195.9c0-1.3-0.5-2.4-1.4-3.1s-2.4-1.1-4.4-1.1H424l-2.2,11
			h5.8c1.3,0,2.4-0.2,3.3-0.6s1.7-0.9,2.3-1.5s1.1-1.3,1.4-2.2C434.9,197.6,435.1,196.8,435.1,195.9z M436,181.8
			c0-0.5-0.1-1-0.3-1.4c-0.2-0.4-0.5-0.8-0.9-1.1c-0.4-0.3-0.9-0.5-1.5-0.7c-0.6-0.2-1.4-0.3-2.4-0.3h-4.4l-2,10.1h4.7
			c1.3,0,2.3-0.2,3.1-0.6c0.8-0.4,1.5-1,2-1.6c0.5-0.6,0.9-1.4,1.2-2.2C435.9,183.2,436,182.5,436,181.8z"/>
		<path class="st2" d="M464.2,188.2c0,1.1-0.3,2.1-0.8,3c-0.5,0.9-1.3,1.6-2.4,2.3c-1.1,0.6-2.5,1.1-4.2,1.4s-3.7,0.5-6.1,0.5h-2.5
			c-0.1,0.5-0.2,1-0.2,1.5s-0.1,1-0.1,1.4c0,1.6,0.4,2.8,1.2,3.7c0.8,0.9,2.1,1.3,3.9,1.3c1,0,1.9-0.1,2.8-0.2
			c0.8-0.2,1.5-0.3,2.1-0.5c0.6-0.2,1.1-0.3,1.5-0.5c0.4-0.2,0.7-0.2,0.8-0.2c0.1,0,0.3,0.1,0.3,0.2s0.1,0.3,0.1,0.4
			c0,0.2,0,0.4,0,0.6s-0.1,0.5-0.1,0.7c-0.1,0.2-0.1,0.5-0.3,0.7c-0.1,0.2-0.2,0.4-0.3,0.5c-0.2,0.2-0.5,0.4-1,0.6
			c-0.5,0.2-1.1,0.4-1.7,0.5c-0.7,0.2-1.4,0.3-2.2,0.4c-0.8,0.1-1.6,0.1-2.4,0.1c-1.4,0-2.7-0.2-3.8-0.5c-1.1-0.3-2-0.8-2.7-1.5
			c-0.7-0.7-1.2-1.5-1.6-2.5c-0.4-1-0.5-2.2-0.5-3.5c0-1,0.1-2.2,0.3-3.4c0.2-1.2,0.5-2.4,1-3.5c0.4-1.2,1-2.3,1.7-3.4
			s1.5-2,2.5-2.8c1-0.8,2.1-1.5,3.3-2c1.3-0.5,2.7-0.7,4.2-0.7c1.3,0,2.5,0.2,3.4,0.5s1.7,0.8,2.3,1.3s1,1.1,1.3,1.8
			S464.2,187.6,464.2,188.2z M460.1,188.6c0-0.8-0.3-1.5-1-2c-0.6-0.5-1.6-0.8-2.7-0.8c-1,0-2,0.2-2.8,0.5c-0.8,0.4-1.5,0.8-2.1,1.5
			c-0.6,0.6-1.1,1.3-1.6,2.1c-0.4,0.8-0.8,1.7-1.1,2.6h2.5c1.7,0,3.1-0.1,4.2-0.3c1.1-0.2,2-0.5,2.7-0.9c0.7-0.4,1.2-0.8,1.4-1.3
			C460,189.6,460.1,189.1,460.1,188.6z"/>
		<path class="st2" d="M487.5,183.7c0,0.2,0,0.4,0,0.5c0,0.2-0.1,0.4-0.2,0.5c-0.5,1.5-1.1,3-1.7,4.6c-0.6,1.6-1.4,3.2-2.2,5
			s-1.8,3.5-2.9,5.4c-1.1,1.9-2.4,3.8-4,5.9l-6.2,8.5c-0.1,0.1-0.2,0.2-0.4,0.3c-0.1,0.1-0.3,0.2-0.5,0.3c-0.2,0.1-0.5,0.1-0.8,0.2
			c-0.3,0-0.6,0-1,0c-0.4,0-0.8,0-1.1-0.1c-0.3,0-0.5-0.1-0.6-0.2c-0.1-0.1-0.2-0.2-0.2-0.4c0-0.2,0.1-0.4,0.3-0.6l5.9-7.5
			l-3.6-21.1c0-0.2-0.1-0.4-0.1-0.5c0-0.2,0-0.3,0-0.4c0-0.2,0-0.3,0.1-0.4c0.1-0.1,0.2-0.2,0.3-0.3s0.4-0.1,0.6-0.1
			c0.3,0,0.6,0,1,0c0.4,0,0.8,0,1,0c0.2,0,0.4,0.1,0.6,0.1c0.1,0.1,0.2,0.1,0.3,0.3c0.1,0.1,0.1,0.2,0.1,0.4l2.8,17.7h0
			c1-1.4,1.9-2.8,2.7-4.3s1.5-2.9,2.2-4.4c0.7-1.5,1.3-3,1.9-4.5c0.6-1.5,1.1-3.1,1.6-4.6c0-0.1,0.1-0.2,0.2-0.3
			c0.1-0.1,0.2-0.2,0.4-0.2c0.2-0.1,0.4-0.1,0.7-0.1c0.3,0,0.6,0,1.1,0c0.7,0,1.2,0,1.4,0.1C487.4,183.3,487.5,183.5,487.5,183.7z"
			/>
		<path class="st2" d="M510.7,191c0,1.2-0.1,2.4-0.3,3.6c-0.2,1.2-0.6,2.4-1,3.6s-1,2.2-1.7,3.2c-0.7,1-1.5,1.9-2.5,2.6
			c-1,0.8-2,1.4-3.2,1.8c-1.2,0.4-2.6,0.7-4.1,0.7c-1.5,0-2.9-0.2-4-0.6c-1.1-0.4-2-0.9-2.7-1.6c-0.7-0.7-1.2-1.6-1.6-2.6
			s-0.5-2.2-0.5-3.5c0-1.2,0.1-2.4,0.3-3.6c0.2-1.2,0.6-2.4,1-3.6c0.5-1.1,1-2.2,1.7-3.2c0.7-1,1.5-1.9,2.5-2.7c1-0.8,2-1.4,3.2-1.8
			c1.2-0.4,2.6-0.7,4.1-0.7c1.5,0,2.9,0.2,4,0.6c1.1,0.4,2,0.9,2.7,1.6c0.7,0.7,1.2,1.6,1.6,2.6S510.7,189.7,510.7,191z
			 M506.5,191.2c0-0.8-0.1-1.5-0.3-2.2c-0.2-0.6-0.4-1.2-0.8-1.6c-0.4-0.4-0.9-0.8-1.5-1c-0.6-0.2-1.4-0.4-2.3-0.4
			c-1,0-1.8,0.2-2.6,0.5c-0.8,0.3-1.5,0.8-2.1,1.4c-0.6,0.6-1.2,1.3-1.6,2.1c-0.5,0.8-0.8,1.6-1.1,2.5c-0.3,0.9-0.5,1.8-0.7,2.7
			s-0.2,1.9-0.2,2.8c0,0.8,0.1,1.5,0.3,2.2c0.2,0.6,0.5,1.2,0.9,1.6c0.4,0.4,0.9,0.8,1.5,1c0.6,0.2,1.4,0.4,2.3,0.4
			c1,0,1.9-0.2,2.6-0.5c0.8-0.3,1.5-0.8,2.1-1.4c0.6-0.6,1.2-1.3,1.6-2.1c0.5-0.8,0.8-1.6,1.1-2.5c0.3-0.9,0.5-1.8,0.7-2.7
			C506.4,193,506.5,192.1,506.5,191.2z"/>
		<path class="st2" d="M535.2,188.6c0,0.6,0,1.1-0.1,1.7c-0.1,0.5-0.2,1.1-0.3,1.7l-2.7,13.5c0,0.1-0.1,0.2-0.2,0.3
			s-0.2,0.2-0.4,0.2c-0.2,0.1-0.4,0.1-0.6,0.1c-0.3,0-0.6,0-1,0c-0.4,0-0.7,0-1,0c-0.2,0-0.4-0.1-0.6-0.1c-0.1-0.1-0.2-0.1-0.3-0.2
			s-0.1-0.2,0-0.3l2.7-13.4c0.1-0.5,0.2-1,0.2-1.4s0.1-0.9,0.1-1.2c0-1-0.2-1.8-0.6-2.4c-0.4-0.6-1.1-0.9-2.1-0.9
			c-0.9,0-1.7,0.2-2.6,0.7s-1.7,1.2-2.5,2c-0.8,0.9-1.4,1.9-2,3.1s-1,2.5-1.3,3.8l-1.9,9.7c0,0.1-0.1,0.2-0.2,0.3s-0.2,0.2-0.4,0.2
			c-0.2,0.1-0.4,0.1-0.6,0.1c-0.3,0-0.6,0-1,0c-0.4,0-0.7,0-1,0c-0.2,0-0.4-0.1-0.6-0.1c-0.1-0.1-0.2-0.1-0.3-0.2s0-0.2,0-0.3
			l4.4-21.7c0-0.1,0.1-0.2,0.1-0.3c0.1-0.1,0.2-0.2,0.3-0.2c0.2-0.1,0.3-0.1,0.6-0.1c0.2,0,0.5,0,0.8,0c0.3,0,0.6,0,0.8,0
			c0.2,0,0.4,0.1,0.5,0.1c0.1,0.1,0.2,0.1,0.2,0.2c0,0.1,0,0.2,0,0.3l-0.8,4.1c0.2-0.5,0.6-1.1,1.2-1.7c0.5-0.6,1.2-1.2,1.9-1.7
			c0.8-0.5,1.6-0.9,2.5-1.3c0.9-0.3,1.8-0.5,2.8-0.5c1.1,0,2,0.2,2.7,0.5c0.7,0.3,1.3,0.8,1.8,1.3s0.8,1.2,1,1.9
			C535.1,187.1,535.2,187.8,535.2,188.6z"/>
		<path class="st2" d="M557.4,205.5c0,0.3-0.2,0.5-0.5,0.6c-0.3,0.1-0.8,0.2-1.4,0.2c-0.3,0-0.6,0-0.8,0c-0.2,0-0.4-0.1-0.5-0.1
			c-0.1-0.1-0.2-0.1-0.3-0.2c0-0.1,0-0.2,0-0.3l0.8-4c-0.2,0.5-0.6,1.1-1.1,1.7c-0.5,0.6-1.2,1.2-1.9,1.7c-0.7,0.5-1.6,0.9-2.5,1.3
			s-1.8,0.5-2.8,0.5s-1.8-0.1-2.5-0.4c-0.7-0.2-1.3-0.6-1.8-1s-0.9-0.9-1.2-1.5c-0.3-0.6-0.5-1.1-0.7-1.7c-0.2-0.6-0.3-1.2-0.3-1.8
			c-0.1-0.6-0.1-1.1-0.1-1.6c0-0.9,0.1-2,0.3-3.1c0.2-1.2,0.5-2.3,0.8-3.5c0.4-1.2,0.9-2.3,1.5-3.4c0.6-1.1,1.3-2.1,2.2-3
			c0.8-0.9,1.8-1.6,2.9-2.1c1.1-0.5,2.4-0.8,3.8-0.8c0.7,0,1.3,0.1,1.9,0.2s1.2,0.4,1.7,0.6s1,0.6,1.4,1c0.4,0.4,0.8,0.8,1.1,1.2
			l2.5-12.3c0-0.1,0.1-0.2,0.1-0.3c0.1-0.1,0.2-0.2,0.4-0.2c0.2-0.1,0.4-0.1,0.6-0.1c0.3,0,0.6-0.1,1-0.1c0.4,0,0.7,0,1,0.1
			c0.2,0,0.4,0.1,0.6,0.1c0.1,0.1,0.2,0.1,0.3,0.2s0,0.2,0,0.3L557.4,205.5z M556.6,189.5c-0.8-1.1-1.6-1.9-2.4-2.5
			c-0.9-0.6-1.9-0.9-2.9-0.9c-0.9,0-1.6,0.2-2.3,0.6c-0.7,0.4-1.3,0.9-1.8,1.6c-0.5,0.7-1,1.4-1.4,2.3c-0.4,0.9-0.7,1.7-1,2.6
			c-0.3,0.9-0.4,1.8-0.6,2.7c-0.1,0.9-0.2,1.7-0.2,2.4c0,1.6,0.3,2.7,0.8,3.6s1.4,1.2,2.5,1.2c0.9,0,1.8-0.2,2.7-0.7
			c0.9-0.5,1.7-1.1,2.5-2c0.8-0.8,1.5-1.9,2-3c0.6-1.2,1-2.5,1.3-3.8L556.6,189.5z"/>
		<path class="st2" d="M591.3,184.1c0,0.1,0,0.3,0,0.5c0,0.2,0,0.3-0.1,0.5c0,0.2-0.1,0.4-0.2,0.5c-0.1,0.2-0.2,0.3-0.3,0.5
			s-0.2,0.2-0.3,0.3c-0.1,0.1-0.2,0.1-0.4,0.1h-5.5l-2.4,12.1c-0.1,0.3-0.1,0.7-0.2,1.1s-0.1,0.8-0.1,1c0,0.8,0.2,1.4,0.5,1.8
			c0.3,0.4,0.9,0.6,1.7,0.6c0.4,0,0.8,0,1.1-0.1c0.3-0.1,0.6-0.1,0.8-0.2c0.2-0.1,0.4-0.2,0.6-0.2c0.2-0.1,0.3-0.1,0.5-0.1
			c0.1,0,0.2,0,0.3,0.1c0.1,0.1,0.1,0.3,0.1,0.5c0,0.2,0,0.4-0.1,0.7c0,0.2-0.1,0.5-0.2,0.7c-0.1,0.2-0.1,0.5-0.2,0.6
			c-0.1,0.2-0.2,0.3-0.3,0.5c-0.1,0.1-0.3,0.2-0.6,0.3c-0.3,0.1-0.6,0.2-0.9,0.3c-0.3,0.1-0.7,0.2-1.1,0.2s-0.8,0.1-1.1,0.1
			c-0.9,0-1.7-0.1-2.3-0.3c-0.7-0.2-1.2-0.5-1.7-0.9c-0.4-0.4-0.8-0.9-1-1.5c-0.2-0.6-0.3-1.4-0.3-2.2c0-0.2,0-0.4,0-0.6
			c0-0.2,0-0.5,0.1-0.7c0-0.3,0.1-0.5,0.1-0.8s0.1-0.5,0.1-0.7l2.4-12.2h-3c-0.2,0-0.3-0.1-0.4-0.2c-0.1-0.1-0.1-0.3-0.1-0.6
			c0-0.2,0-0.5,0.1-0.8c0-0.3,0.1-0.6,0.2-0.8c0.1-0.3,0.2-0.5,0.4-0.6s0.3-0.3,0.5-0.3h3l1-5.1c0-0.1,0.1-0.2,0.2-0.3
			c0.1-0.1,0.2-0.2,0.4-0.3s0.4-0.1,0.6-0.2s0.6,0,1,0s0.7,0,1,0c0.2,0,0.4,0.1,0.6,0.2c0.1,0.1,0.2,0.2,0.3,0.3
			c0,0.1,0.1,0.2,0,0.3l-1,5.1h5.5c0.2,0,0.4,0.1,0.5,0.3S591.3,183.8,591.3,184.1z"/>
		<path class="st2" d="M610.4,205.5c0,0.1-0.1,0.2-0.2,0.3s-0.2,0.2-0.4,0.2c-0.2,0.1-0.4,0.1-0.6,0.1c-0.3,0-0.6,0-1,0
			c-0.4,0-0.7,0-1,0c-0.2,0-0.4-0.1-0.6-0.1c-0.1-0.1-0.2-0.1-0.3-0.2s-0.1-0.2,0-0.3l2.7-13.4c0.1-0.4,0.1-0.9,0.2-1.4
			s0.1-1,0.1-1.4c0-0.5,0-0.9-0.1-1.3c-0.1-0.4-0.3-0.7-0.5-1c-0.2-0.3-0.5-0.5-0.8-0.7s-0.8-0.2-1.3-0.2c-0.9,0-1.7,0.2-2.6,0.7
			s-1.7,1.2-2.5,2.1s-1.4,1.9-2,3.1c-0.6,1.2-1,2.5-1.3,3.8l-1.9,9.6c0,0.1-0.1,0.2-0.2,0.3s-0.2,0.2-0.4,0.2
			c-0.2,0.1-0.4,0.1-0.6,0.1c-0.3,0-0.6,0-1,0c-0.4,0-0.7,0-1,0c-0.2,0-0.4-0.1-0.6-0.1c-0.1-0.1-0.2-0.1-0.3-0.2s0-0.2,0-0.3
			l6.4-32.1c0-0.1,0.1-0.2,0.2-0.3c0.1-0.1,0.2-0.2,0.4-0.2c0.2-0.1,0.4-0.1,0.6-0.1s0.6,0,1,0c0.4,0,0.7,0,1,0
			c0.2,0,0.4,0.1,0.6,0.1c0.1,0.1,0.2,0.1,0.3,0.2c0,0.1,0,0.2,0,0.3l-1.9,9.8c-0.1,0.4-0.2,0.8-0.3,1.3c-0.1,0.4-0.2,0.9-0.3,1.3
			c-0.1,0.4-0.2,0.8-0.4,1.2s-0.2,0.7-0.3,1c0.3-0.6,0.7-1.1,1.2-1.7c0.5-0.6,1.2-1.2,1.9-1.7c0.7-0.5,1.6-0.9,2.4-1.3
			c0.9-0.3,1.8-0.5,2.8-0.5c1,0,1.9,0.1,2.6,0.4c0.7,0.3,1.3,0.7,1.8,1.2s0.8,1.1,1,1.9c0.2,0.7,0.3,1.5,0.3,2.3
			c0,0.6,0,1.1-0.1,1.7c-0.1,0.5-0.2,1.1-0.3,1.7L610.4,205.5z"/>
		<path class="st2" d="M638.3,188.2c0,1.1-0.3,2.1-0.8,3c-0.5,0.9-1.3,1.6-2.4,2.3c-1.1,0.6-2.5,1.1-4.2,1.4s-3.7,0.5-6.1,0.5h-2.5
			c-0.1,0.5-0.2,1-0.2,1.5s-0.1,1-0.1,1.4c0,1.6,0.4,2.8,1.2,3.7c0.8,0.9,2.1,1.3,3.9,1.3c1,0,1.9-0.1,2.8-0.2
			c0.8-0.2,1.5-0.3,2.1-0.5c0.6-0.2,1.1-0.3,1.5-0.5c0.4-0.2,0.7-0.2,0.8-0.2c0.1,0,0.3,0.1,0.3,0.2s0.1,0.3,0.1,0.4
			c0,0.2,0,0.4,0,0.6s-0.1,0.5-0.1,0.7c-0.1,0.2-0.1,0.5-0.3,0.7c-0.1,0.2-0.2,0.4-0.3,0.5c-0.2,0.2-0.5,0.4-1,0.6
			c-0.5,0.2-1.1,0.4-1.7,0.5c-0.7,0.2-1.4,0.3-2.2,0.4c-0.8,0.1-1.6,0.1-2.4,0.1c-1.4,0-2.7-0.2-3.8-0.5c-1.1-0.3-2-0.8-2.7-1.5
			c-0.7-0.7-1.2-1.5-1.6-2.5c-0.4-1-0.5-2.2-0.5-3.5c0-1,0.1-2.2,0.3-3.4c0.2-1.2,0.5-2.4,1-3.5c0.4-1.2,1-2.3,1.7-3.4
			s1.5-2,2.5-2.8c1-0.8,2.1-1.5,3.3-2c1.3-0.5,2.7-0.7,4.2-0.7c1.3,0,2.5,0.2,3.4,0.5s1.7,0.8,2.3,1.3s1,1.1,1.3,1.8
			S638.3,187.6,638.3,188.2z M634.3,188.6c0-0.8-0.3-1.5-1-2c-0.6-0.5-1.6-0.8-2.7-0.8c-1,0-2,0.2-2.8,0.5c-0.8,0.4-1.5,0.8-2.1,1.5
			c-0.6,0.6-1.1,1.3-1.6,2.1c-0.4,0.8-0.8,1.7-1.1,2.6h2.5c1.7,0,3.1-0.1,4.2-0.3c1.1-0.2,2-0.5,2.7-0.9c0.7-0.4,1.2-0.8,1.4-1.3
			C634.1,189.6,634.3,189.1,634.3,188.6z"/>
		<path class="st2" d="M669.3,203.3c0,0.1,0,0.2,0,0.4c0,0.2-0.1,0.4-0.1,0.6c0,0.2-0.1,0.4-0.1,0.6c-0.1,0.2-0.1,0.4-0.2,0.6
			c-0.1,0.2-0.2,0.3-0.3,0.4c-0.1,0.1-0.3,0.2-0.4,0.2h-13.8c-0.2,0-0.4,0-0.5-0.1c-0.2-0.1-0.3-0.2-0.4-0.3
			c-0.1-0.1-0.2-0.3-0.3-0.5c0-0.2,0-0.5,0-0.8l5.7-28.8c0-0.1,0.1-0.2,0.2-0.3c0.1-0.1,0.2-0.2,0.4-0.2c0.2-0.1,0.4-0.1,0.7-0.1
			s0.6-0.1,1-0.1s0.7,0,1,0.1s0.5,0.1,0.6,0.1c0.1,0.1,0.2,0.1,0.3,0.2c0,0.1,0.1,0.2,0,0.3l-5.4,26.9h11.2c0.2,0,0.4,0.1,0.4,0.2
			C669.2,202.9,669.3,203.1,669.3,203.3z"/>
		<path class="st2" d="M677,205.5c0,0.1-0.1,0.2-0.2,0.3s-0.2,0.2-0.4,0.2c-0.2,0.1-0.4,0.1-0.6,0.1c-0.3,0-0.6,0-1,0
			c-0.4,0-0.7,0-1,0c-0.2,0-0.4-0.1-0.6-0.1c-0.1-0.1-0.2-0.1-0.3-0.2s0-0.2,0-0.3l4.3-21.7c0-0.1,0.1-0.2,0.1-0.3
			c0.1-0.1,0.2-0.2,0.4-0.2c0.2-0.1,0.4-0.1,0.6-0.1s0.6,0,1,0c0.4,0,0.7,0,1,0c0.2,0,0.4,0.1,0.6,0.1c0.1,0.1,0.2,0.1,0.3,0.2
			c0,0.1,0.1,0.2,0,0.3L677,205.5z M683.2,176.5c-0.1,0.4-0.2,0.8-0.3,1.1c-0.1,0.3-0.3,0.5-0.5,0.7c-0.2,0.2-0.5,0.3-0.8,0.4
			s-0.7,0.1-1.2,0.1c-0.5,0-0.9,0-1.2-0.1s-0.5-0.2-0.7-0.4c-0.1-0.2-0.2-0.4-0.2-0.7c0-0.3,0-0.7,0.1-1.1c0.1-0.4,0.2-0.8,0.4-1.1
			s0.3-0.5,0.5-0.7c0.2-0.2,0.5-0.3,0.8-0.4s0.7-0.1,1.2-0.1c0.5,0,0.8,0,1.1,0.1c0.3,0.1,0.5,0.2,0.7,0.4c0.2,0.2,0.2,0.4,0.3,0.7
			C683.4,175.7,683.3,176.1,683.2,176.5z"/>
		<path class="st2" d="M716,205.5c0,0.1-0.1,0.2-0.1,0.3s-0.2,0.2-0.4,0.2c-0.2,0.1-0.4,0.1-0.6,0.1c-0.3,0-0.6,0-1,0s-0.7,0-1,0
			c-0.2,0-0.4-0.1-0.6-0.1c-0.1-0.1-0.2-0.1-0.3-0.2c0-0.1-0.1-0.2,0-0.3l2.7-13.4c0.1-0.5,0.1-0.9,0.2-1.3c0.1-0.4,0.1-0.8,0.1-1.3
			c0-1-0.2-1.8-0.6-2.5c-0.4-0.6-1.1-0.9-2.1-0.9c-0.8,0-1.6,0.2-2.5,0.7c-0.9,0.5-1.7,1.2-2.4,2c-0.8,0.9-1.5,1.9-2,3.1
			s-1,2.5-1.3,3.8l-1.9,9.7c0,0.1-0.1,0.2-0.2,0.3c-0.1,0.1-0.2,0.2-0.4,0.2c-0.2,0.1-0.4,0.1-0.6,0.1c-0.3,0-0.6,0-1,0s-0.7,0-1,0
			c-0.2,0-0.4-0.1-0.6-0.1c-0.1-0.1-0.2-0.1-0.3-0.2c0-0.1-0.1-0.2,0-0.3l2.7-13.4c0.1-0.5,0.2-1,0.2-1.4c0-0.5,0.1-0.9,0.1-1.3
			c0-1-0.2-1.8-0.6-2.3c-0.4-0.6-1.1-0.9-2-0.9c-0.8,0-1.7,0.2-2.5,0.7c-0.8,0.5-1.7,1.2-2.4,2c-0.8,0.9-1.5,1.9-2,3.1
			c-0.6,1.2-1,2.5-1.3,3.8l-1.9,9.7c0,0.1-0.1,0.2-0.2,0.3s-0.2,0.2-0.4,0.2c-0.2,0.1-0.4,0.1-0.6,0.1c-0.3,0-0.6,0-1,0
			c-0.4,0-0.7,0-1,0c-0.2,0-0.4-0.1-0.6-0.1c-0.1-0.1-0.2-0.1-0.3-0.2s0-0.2,0-0.3l4.4-21.7c0-0.1,0.1-0.2,0.1-0.3
			c0.1-0.1,0.2-0.2,0.3-0.2c0.2-0.1,0.3-0.1,0.6-0.1c0.2,0,0.5,0,0.8,0c0.3,0,0.6,0,0.8,0c0.2,0,0.4,0.1,0.5,0.1
			c0.1,0.1,0.2,0.1,0.2,0.2c0,0.1,0,0.2,0,0.3l-0.8,4.1c0.2-0.5,0.6-1.1,1.2-1.7c0.6-0.6,1.2-1.2,1.9-1.7c0.7-0.5,1.5-0.9,2.4-1.3
			c0.9-0.3,1.8-0.5,2.7-0.5c1,0,1.8,0.1,2.5,0.4s1.3,0.6,1.7,1.1s0.8,1,1,1.6c0.2,0.6,0.3,1.3,0.4,2.1c0.3-0.6,0.8-1.1,1.3-1.8
			c0.6-0.6,1.2-1.2,1.9-1.7c0.7-0.5,1.5-0.9,2.4-1.3c0.9-0.3,1.7-0.5,2.6-0.5c1.1,0,2,0.2,2.7,0.5s1.3,0.7,1.8,1.3s0.8,1.1,1,1.9
			c0.2,0.7,0.3,1.5,0.3,2.3c0,0.6,0,1.1-0.1,1.7c-0.1,0.5-0.2,1.1-0.3,1.7L716,205.5z"/>
		<path class="st2" d="M727.3,205.5c0,0.1-0.1,0.2-0.2,0.3s-0.2,0.2-0.4,0.2c-0.2,0.1-0.4,0.1-0.6,0.1c-0.3,0-0.6,0-1,0
			c-0.4,0-0.7,0-1,0c-0.2,0-0.4-0.1-0.6-0.1c-0.1-0.1-0.2-0.1-0.3-0.2s0-0.2,0-0.3l4.3-21.7c0-0.1,0.1-0.2,0.1-0.3
			c0.1-0.1,0.2-0.2,0.4-0.2c0.2-0.1,0.4-0.1,0.6-0.1s0.6,0,1,0c0.4,0,0.7,0,1,0c0.2,0,0.4,0.1,0.6,0.1c0.1,0.1,0.2,0.1,0.3,0.2
			c0,0.1,0.1,0.2,0,0.3L727.3,205.5z M733.5,176.5c-0.1,0.4-0.2,0.8-0.3,1.1c-0.1,0.3-0.3,0.5-0.5,0.7c-0.2,0.2-0.5,0.3-0.8,0.4
			s-0.7,0.1-1.2,0.1c-0.5,0-0.9,0-1.2-0.1s-0.5-0.2-0.7-0.4c-0.1-0.2-0.2-0.4-0.2-0.7c0-0.3,0-0.7,0.1-1.1c0.1-0.4,0.2-0.8,0.4-1.1
			s0.3-0.5,0.5-0.7c0.2-0.2,0.5-0.3,0.8-0.4s0.7-0.1,1.2-0.1c0.5,0,0.8,0,1.1,0.1c0.3,0.1,0.5,0.2,0.7,0.4c0.2,0.2,0.2,0.4,0.3,0.7
			C733.7,175.7,733.6,176.1,733.5,176.5z"/>
		<path class="st2" d="M750.1,184.1c0,0.1,0,0.3,0,0.5c0,0.2,0,0.3-0.1,0.5c0,0.2-0.1,0.4-0.2,0.5c-0.1,0.2-0.2,0.3-0.3,0.5
			s-0.2,0.2-0.3,0.3c-0.1,0.1-0.2,0.1-0.4,0.1h-5.5l-2.4,12.1c-0.1,0.3-0.1,0.7-0.2,1.1s-0.1,0.8-0.1,1c0,0.8,0.2,1.4,0.5,1.8
			c0.3,0.4,0.9,0.6,1.7,0.6c0.4,0,0.8,0,1.1-0.1c0.3-0.1,0.6-0.1,0.8-0.2c0.2-0.1,0.4-0.2,0.6-0.2c0.2-0.1,0.3-0.1,0.5-0.1
			c0.1,0,0.2,0,0.3,0.1c0.1,0.1,0.1,0.3,0.1,0.5c0,0.2,0,0.4-0.1,0.7c0,0.2-0.1,0.5-0.2,0.7c-0.1,0.2-0.1,0.5-0.2,0.6
			c-0.1,0.2-0.2,0.3-0.3,0.5c-0.1,0.1-0.3,0.2-0.6,0.3c-0.3,0.1-0.6,0.2-0.9,0.3c-0.3,0.1-0.7,0.2-1.1,0.2s-0.8,0.1-1.1,0.1
			c-0.9,0-1.7-0.1-2.3-0.3c-0.7-0.2-1.2-0.5-1.7-0.9c-0.4-0.4-0.8-0.9-1-1.5c-0.2-0.6-0.3-1.4-0.3-2.2c0-0.2,0-0.4,0-0.6
			c0-0.2,0-0.5,0.1-0.7c0-0.3,0.1-0.5,0.1-0.8s0.1-0.5,0.1-0.7l2.4-12.2h-3c-0.2,0-0.3-0.1-0.4-0.2c-0.1-0.1-0.1-0.3-0.1-0.6
			c0-0.2,0-0.5,0.1-0.8c0-0.3,0.1-0.6,0.2-0.8c0.1-0.3,0.2-0.5,0.4-0.6s0.3-0.3,0.5-0.3h3l1-5.1c0-0.1,0.1-0.2,0.2-0.3
			c0.1-0.1,0.2-0.2,0.4-0.3s0.4-0.1,0.6-0.2s0.6,0,1,0s0.7,0,1,0c0.2,0,0.4,0.1,0.6,0.2c0.1,0.1,0.2,0.2,0.3,0.3
			c0,0.1,0.1,0.2,0,0.3l-1,5.1h5.5c0.2,0,0.4,0.1,0.5,0.3S750.1,183.8,750.1,184.1z"/>
	</g>
</g>
</svg>
